# xmcd CD database file
#
# Track frame offsets:
#	150
#	28260
#	54367
#	79675
#	104980
#
# Disc length: 1757 seconds
#
# Revision: 2
# Processed by: cddbd v1.5.1PL0 Copyright (c) Steve Scherf et al.
# Submitted via: CDex 1.51
#
DISCID=3e06db05
DTITLE=Steve Kuhn,Scott Lafaro,Pete La Roca - 1960
DYEAR=1960
DGENRE=Jazz
TTITLE0=Littele Old Lady
TTITLE1=Bohemia After Dark
TTITLE2=What's New
TTITLE3=So What
TTITLE4=So What(Alternate Take)
EXTD=
EXTT0=
EXTT1=
EXTT2=
EXTT3=
EXTT4=
PLAYORDER=
